<?xml version="1.0" encoding="UTF-8" standalone="no"?>
<!-- Created with Inkscape (http://www.inkscape.org/) -->

<svg
   xmlns:dc="http://purl.org/dc/elements/1.1/"
   xmlns:cc="http://creativecommons.org/ns#"
   xmlns:rdf="http://www.w3.org/1999/02/22-rdf-syntax-ns#"
   xmlns:svg="http://www.w3.org/2000/svg"
   xmlns="http://www.w3.org/2000/svg"
   xmlns:sodipodi="http://sodipodi.sourceforge.net/DTD/sodipodi-0.dtd"
   xmlns:inkscape="http://www.inkscape.org/namespaces/inkscape"
   width="310"
   height="297"
   viewBox="0 0 82.020831 78.581252"
   version="1.1"
   id="svg8"
   inkscape:version="0.92.1 r"
   sodipodi:docname="3.svg">
  <defs
     id="defs2" />
  <sodipodi:namedview
     id="base"
     pagecolor="#ffffff"
     bordercolor="#666666"
     borderopacity="1.0"
     inkscape:pageopacity="0.0"
     inkscape:pageshadow="2"
     inkscape:zoom="1.4"
     inkscape:cx="134.99156"
     inkscape:cy="193.92047"
     inkscape:document-units="px"
     inkscape:current-layer="layer1"
     showgrid="false"
     units="px"
     inkscape:showpageshadow="false"
     inkscape:window-width="1337"
     inkscape:window-height="1030"
     inkscape:window-x="0"
     inkscape:window-y="25"
     inkscape:window-maximized="0"
     inkscape:snap-global="false" />
  <metadata
     id="metadata5">
    <rdf:RDF>
      <cc:Work
         rdf:about="">
        <dc:format>image/svg+xml</dc:format>
        <dc:type
           rdf:resource="http://purl.org/dc/dcmitype/StillImage" />
        <dc:title />
      </cc:Work>
    </rdf:RDF>
  </metadata>
  <g
     inkscape:label="Calque 1"
     inkscape:groupmode="layer"
     id="layer1"
     transform="translate(0,-218.41874)">
    <path
       style="opacity:1;fill:#d10066;fill-opacity:1;stroke:none;stroke-width:8.26499939;stroke-linecap:round;stroke-linejoin:round;stroke-miterlimit:4;stroke-dasharray:none;stroke-dashoffset:0;stroke-opacity:1;paint-order:stroke fill markers"
       d="m 57.748014,231.95974 -0.921389,5.18355 a 13.648243,13.648243 0 0 0 -3.588879,1.33917 l -4.67008,-3.19576 -3.51785,3.51786 3.133117,4.48758 a 13.648243,13.648243 0 0 0 -1.463471,3.26776 l -5.808498,1.0891 v 4.97442 l 5.618598,0.99881 a 13.648243,13.648243 0 0 0 1.164068,3.13215 l -3.455207,5.04938 3.517356,3.51785 4.760836,-3.32351 a 13.648243,13.648243 0 0 0 2.94371,1.38306 l 1.139898,6.07931 h 4.974415 l 1.004254,-5.64968 a 13.648243,13.648243 0 0 0 3.176029,-1.09895 l 5.000559,3.42166 3.517355,-3.51785 -3.172576,-4.54381 a 13.648243,13.648243 0 0 0 1.594674,-3.22832 l 5.716753,-1.07231 v -4.97442 l -5.227943,-0.92928 a 13.648243,13.648243 0 0 0 -1.26025,-3.6313 l 3.161229,-4.61977 -3.517849,-3.51784 -4.26019,2.97428 a 13.648243,13.648243 0 0 0 -3.562738,-1.66767 l -1.021025,-5.44547 z m 2.041064,12.50041 a 5.995022,5.995022 0 0 1 5.994946,5.99494 5.995022,5.995022 0 0 1 -5.994946,5.99495 5.995022,5.995022 0 0 1 -5.994946,-5.99495 5.995022,5.995022 0 0 1 5.994946,-5.99494 z"
       id="path4504"
       inkscape:connector-curvature="0" />
    <path
       id="path4583"
       d="m 30.953419,219.84283 -2.240711,4.76418 a 13.648243,13.648243 0 0 0 -3.813882,0.35737 l -3.675609,-4.3026 -4.313215,2.47925 1.855044,5.14914 a 13.648243,13.648243 0 0 0 -2.264672,2.77332 l -5.891583,-0.46264 -1.2966595,4.80245 5.1639965,2.42889 a 13.648243,13.648243 0 0 0 0.307389,3.32726 l -4.651962,3.97419 2.478776,4.31308 5.462576,-1.96763 a 13.648243,13.648243 0 0 0 2.481423,2.10258 l -0.484172,6.16627 4.802446,1.29665 2.442211,-5.19259 a 13.648243,13.648243 0 0 0 3.352691,-0.23307 l 3.935776,4.60683 4.312741,-2.47937 -1.878485,-5.2137 a 13.648243,13.648243 0 0 0 2.381056,-2.70104 l 5.798637,0.45492 1.29666,-4.80245 -4.80498,-2.2599 a 13.648243,13.648243 0 0 0 -0.270127,-3.83426 l 4.256161,-3.63605 -2.479252,-4.31321 -4.888208,1.76098 a 13.648243,13.648243 0 0 0 -3.004865,-2.53871 l 0.433718,-5.52335 z m -1.287923,12.6003 a 5.995022,5.995022 0 0 1 4.225019,7.35036 5.995022,5.995022 0 0 1 -7.350374,4.22502 5.995022,5.995022 0 0 1 -4.225016,-7.35037 5.995022,5.995022 0 0 1 7.350371,-4.22501 z"
       style="opacity:1;fill:#d10066;fill-opacity:1;stroke:none;stroke-width:8.26499939;stroke-linecap:round;stroke-linejoin:round;stroke-miterlimit:4;stroke-dasharray:none;stroke-dashoffset:0;stroke-opacity:1;paint-order:stroke fill markers"
       inkscape:connector-curvature="0" />
    <path
       id="path4594"
       d="m 13.36364,253.80648 0.234815,5.25958 a 13.648243,13.648243 0 0 0 -3.209021,2.0918 l -5.2560419,-2.0968 -2.663132,4.20216 4.0388826,3.69354 a 13.648243,13.648243 0 0 0 -0.71321,3.50877 l -5.42959001,2.33331 1.08814121,4.85394 5.7010137,-0.25442 A 13.648243,13.648243 0 0 0 8.9765201,280.2 l -2.2669865,5.68292 4.2016904,2.66324 3.918527,-4.28444 a 13.648243,13.648243 0 0 0 3.174961,0.70564 l 2.442121,5.6827 4.853942,-1.08812 -0.255919,-5.73253 a 13.648243,13.648243 0 0 0 2.858716,-1.76709 l 5.627936,2.24495 2.662648,-4.20208 -4.089687,-3.73977 a 13.648243,13.648243 0 0 0 0.849867,-3.49895 l 5.343736,-2.29689 -1.088142,-4.85394 -5.304607,0.23683 a 13.648243,13.648243 0 0 0 -2.024067,-3.26767 l 2.074109,-5.19939 -4.202175,-2.66315 -3.506394,3.83417 a 13.648243,13.648243 0 0 0 -3.841255,-0.84795 l -2.18748,-5.09024 z m 4.726063,11.75119 a 5.995022,5.995022 0 0 1 7.161138,4.53838 5.995022,5.995022 0 0 1 -4.538379,7.16114 5.995022,5.995022 0 0 1 -7.161135,-4.53837 5.995022,5.995022 0 0 1 4.538376,-7.16115 z"
       style="opacity:1;fill:#d10066;fill-opacity:1;stroke:none;stroke-width:8.26499939;stroke-linecap:round;stroke-linejoin:round;stroke-miterlimit:4;stroke-dasharray:none;stroke-dashoffset:0;stroke-opacity:1;paint-order:stroke fill markers"
       inkscape:connector-curvature="0" />
    <path
       style="fill:#ef96c4;fill-opacity:1;fill-rule:evenodd;stroke:none;stroke-width:0.26458332px;stroke-linecap:butt;stroke-linejoin:miter;stroke-opacity:1"
       d="m 81.382384,239.55288 c 0,0 -9.921349,-12.80756 -22.187743,-10.6429 -12.266394,2.16466 -8.117465,-1.98426 -0.901941,-2.52543 7.215526,-0.54116 17.317263,3.24699 23.089684,13.16833 z"
       id="path4596"
       inkscape:connector-curvature="0" />
    <path
       inkscape:connector-curvature="0"
       id="path4607"
       d="m 9.030724,254.15683 c 0,0 -8.26944763,-13.93136 -1.7515758,-24.54585 6.5178608,-10.6145 1.1352443,-8.27899 -2.0177878,-1.76631 -3.1530304,6.51267 -3.3390805,17.29975 3.7693636,26.31216 z"
       style="fill:#ef96c4;fill-opacity:1;fill-rule:evenodd;stroke:none;stroke-width:0.26458332px;stroke-linecap:butt;stroke-linejoin:miter;stroke-opacity:1" />
    <path
       style="fill:#ef96c4;fill-opacity:1;fill-rule:evenodd;stroke:none;stroke-width:0.26458332px;stroke-linecap:butt;stroke-linejoin:miter;stroke-opacity:1"
       d="m 20.69806,295.16109 c 0,0 15.93353,-2.93071 19.644452,-14.82102 3.71093,-11.89029 5.490829,-6.2993 2.657565,0.35872 -2.833265,6.65801 -10.837824,13.89145 -22.302017,14.4623 z"
       id="path4618"
       inkscape:connector-curvature="0" />
  </g>
</svg>
