<?xml version="1.0" encoding="UTF-8" standalone="no"?>
<svg
   xmlns:dc="http://purl.org/dc/elements/1.1/"
   xmlns:cc="http://creativecommons.org/ns#"
   xmlns:rdf="http://www.w3.org/1999/02/22-rdf-syntax-ns#"
   xmlns:svg="http://www.w3.org/2000/svg"
   xmlns="http://www.w3.org/2000/svg"
   xmlns:sodipodi="http://sodipodi.sourceforge.net/DTD/sodipodi-0.dtd"
   xmlns:inkscape="http://www.inkscape.org/namespaces/inkscape"
   version="1.1"
   id="svg4730"
   viewBox="0 0 25 25"
   height="25"
   width="25"
   sodipodi:docname="facebook.svg"
   inkscape:version="0.92.1 r">
  <sodipodi:namedview
     pagecolor="#ffffff"
     bordercolor="#666666"
     borderopacity="1"
     objecttolerance="10"
     gridtolerance="10"
     guidetolerance="10"
     inkscape:pageopacity="0"
     inkscape:pageshadow="2"
     inkscape:window-width="813"
     inkscape:window-height="480"
     id="namedview14"
     showgrid="false"
     inkscape:zoom="0.78666082"
     inkscape:cx="2.5412779"
     inkscape:cy="150.00111"
     inkscape:window-x="0"
     inkscape:window-y="25"
     inkscape:window-maximized="0"
     inkscape:current-layer="svg4730" />
  <defs
     id="defs4732">
    <clipPath
       clipPathUnits="userSpaceOnUse"
       id="clipPath4674">
      <path
         d="M 0,500 H 1024 V 0 H 0 Z"
         id="path4676"
         inkscape:connector-curvature="0" />
    </clipPath>
  </defs>
  <metadata
     id="metadata4735">
    <rdf:RDF>
      <cc:Work
         rdf:about="">
        <dc:format>image/svg+xml</dc:format>
        <dc:type
           rdf:resource="http://purl.org/dc/dcmitype/StillImage" />
        <dc:title></dc:title>
      </cc:Work>
    </rdf:RDF>
  </metadata>
  <g
     transform="matrix(0.08389262,0,0,0.08389262,-2.8914672,-36.11435)"
     id="layer1"
     style="stroke-width:11.92000008">
    <g
       transform="matrix(1.1165523,0,0,-1.1165523,-103.48743,863.08638)"
       id="g4670"
       style="stroke-width:11.92000008">
      <g
         id="g4672"
         clip-path="url(#clipPath4674)"
         style="stroke-width:11.92000008">
        <g
           id="g4678"
           transform="translate(375.7163,120.5527)"
           style="stroke-width:11.92000008">
          <path
             d="m 0,0 c 8.134,0 14.73,6.596 14.73,14.73 v 237.434 c 0,8.137 -6.596,14.731 -14.73,14.731 h -237.433 c -8.137,0 -14.73,-6.594 -14.73,-14.731 V 14.73 c 0,-8.134 6.593,-14.73 14.73,-14.73 z"
             style="fill:#3b5998;fill-opacity:1;fill-rule:nonzero;stroke:none;stroke-width:11.92000008"
             id="path4680"
             inkscape:connector-curvature="0" />
        </g>
        <g
           id="g4682"
           transform="translate(307.7046,120.5527)"
           style="stroke-width:11.92000008">
          <path
             d="m 0,0 v 103.355 h 34.693 l 5.194,40.28 H 0 v 25.717 c 0,11.662 3.238,19.609 19.962,19.609 l 21.33,0.01 v 36.026 c -3.69,0.49 -16.351,1.587 -31.081,1.587 -30.753,0 -51.806,-18.771 -51.806,-53.244 v -29.705 h -34.781 v -40.28 h 34.781 L -41.595,0 Z"
             style="fill:#ffffff;fill-opacity:1;fill-rule:nonzero;stroke:none;stroke-width:11.92000008"
             id="path4684"
             inkscape:connector-curvature="0" />
        </g>
      </g>
    </g>
  </g>
</svg>
