<?xml version="1.0" standalone="no"?>
<!DOCTYPE svg PUBLIC "-//W3C//DTD SVG 20010904//EN"
 "http://www.w3.org/TR/2001/REC-SVG-20010904/DTD/svg10.dtd">
<svg version="1.0" xmlns="http://www.w3.org/2000/svg"
 width="1500.000000pt" height="1500.000000pt" viewBox="0 0 1500.000000 1500.000000"
 preserveAspectRatio="xMidYMid meet">
<metadata>
Created by potrace 1.11, written by Peter Selinger 2001-2013
</metadata>
<g transform="translate(0.000000,1500.000000) scale(0.100000,-0.100000)"
fill="#000000" stroke="none">
<path d="M6817 14254 c-1 -1 -60 -5 -132 -8 -71 -4 -137 -9 -145 -11 -8 -2
-40 -6 -71 -10 -31 -3 -65 -7 -75 -9 -11 -2 -44 -7 -74 -11 -64 -8 -63 -8
-197 -35 -57 -11 -115 -22 -130 -25 -174 -27 -726 -190 -793 -234 -13 -9 -27
-15 -30 -15 -3 1 -14 -2 -25 -6 -11 -4 -81 -31 -155 -59 -74 -28 -147 -58
-161 -66 -14 -8 -84 -40 -155 -71 -71 -30 -162 -73 -201 -95 -40 -21 -74 -39
-75 -38 -5 1 -190 -90 -202 -100 -6 -5 -69 -40 -141 -77 -71 -37 -150 -82
-175 -99 -25 -18 -72 -47 -105 -65 -62 -35 -258 -160 -355 -227 -30 -21 -106
-73 -168 -116 -62 -43 -125 -88 -140 -101 -15 -14 -64 -51 -108 -83 -45 -32
-103 -77 -130 -100 -27 -24 -68 -57 -91 -75 -65 -51 -222 -186 -288 -247 -157
-148 -534 -537 -573 -592 -7 -11 -29 -36 -49 -57 -19 -20 -53 -62 -76 -92 -23
-30 -54 -69 -69 -85 -38 -43 -218 -290 -298 -410 -36 -55 -80 -120 -97 -145
-92 -138 -235 -393 -334 -600 -118 -244 -138 -289 -169 -375 -17 -49 -38 -103
-45 -120 -7 -16 -17 -43 -21 -60 -4 -16 -13 -39 -20 -50 -18 -29 -137 -431
-148 -500 -1 -5 -4 -15 -8 -20 -9 -14 -58 -219 -74 -310 -3 -16 -9 -46 -14
-65 -8 -32 -34 -179 -46 -260 -3 -19 -7 -46 -10 -60 -2 -14 -6 -50 -10 -80 -3
-30 -7 -62 -9 -70 -2 -8 -7 -46 -10 -85 -4 -38 -8 -81 -11 -95 -25 -158 -25
-946 0 -1077 3 -12 7 -53 10 -90 3 -37 8 -77 10 -89 2 -11 7 -45 10 -75 3 -30
8 -65 10 -79 3 -14 10 -59 16 -100 6 -41 15 -95 21 -120 5 -25 17 -81 25 -125
9 -44 20 -96 24 -115 4 -19 15 -69 24 -110 9 -41 25 -100 36 -131 10 -31 21
-67 24 -80 17 -80 114 -405 127 -428 5 -9 37 -90 70 -181 33 -91 66 -174 73
-185 7 -11 36 -74 65 -140 29 -66 64 -140 78 -165 14 -25 55 -101 91 -170 36
-69 75 -138 87 -155 12 -16 52 -79 89 -140 109 -179 279 -417 435 -610 54 -67
173 -207 191 -225 3 -3 23 -25 44 -50 107 -123 325 -338 490 -485 44 -38 84
-75 90 -80 16 -15 253 -202 335 -265 40 -30 78 -60 84 -65 7 -6 28 -21 48 -33
30 -18 66 -44 124 -90 17 -13 147 -97 190 -122 22 -13 49 -31 60 -41 11 -9 70
-45 130 -79 61 -34 130 -75 155 -90 25 -15 97 -54 160 -86 63 -32 122 -63 130
-70 8 -6 69 -35 135 -64 66 -29 145 -65 175 -81 54 -27 236 -98 295 -114 38
-11 33 -9 81 -24 47 -15 53 -26 123 -241 66 -201 162 -372 271 -480 58 -59
191 -156 250 -183 55 -26 299 -79 360 -79 64 0 388 77 411 98 8 8 19 14 23 14
19 0 167 78 239 125 44 30 85 51 91 48 6 -4 40 -26 76 -49 78 -50 116 -62 365
-120 74 -17 298 3 410 36 17 5 41 11 55 14 47 8 108 26 137 41 15 8 33 15 38
15 14 0 218 84 275 113 25 13 95 51 157 86 100 56 114 61 135 50 13 -6 25 -15
28 -18 19 -24 171 -120 199 -126 38 -9 55 -13 166 -40 164 -41 262 -41 435 0
153 36 204 52 268 87 61 33 226 144 280 188 l33 27 60 -18 c33 -10 70 -21 82
-23 12 -2 63 -14 112 -26 122 -30 222 -28 360 5 61 15 117 28 125 30 101 21
206 67 283 123 30 23 56 39 58 37 2 -2 20 -6 39 -9 19 -3 58 -12 87 -20 47
-13 62 -12 150 5 84 16 181 34 307 55 16 3 34 7 39 11 5 3 29 5 54 5 25 -1 82
7 127 18 45 10 93 21 106 24 129 26 245 71 328 127 l46 31 86 -18 c47 -10 88
-17 92 -16 3 1 21 4 40 7 18 3 51 10 73 15 22 5 56 11 75 14 66 10 190 36 301
61 94 22 119 32 172 71 66 47 74 49 167 24 98 -25 184 -16 424 44 128 33 204
70 329 161 146 105 284 254 389 417 26 39 75 249 67 281 -4 16 1 55 13 99 22
82 34 296 19 344 -5 16 -22 83 -37 149 -23 105 -79 248 -103 265 -4 3 -18 21
-31 40 -14 19 -29 41 -35 49 -24 34 -125 128 -190 177 -87 66 -129 83 -291
125 -157 40 -282 43 -409 12 l-80 -20 -7 71 c-3 39 -16 111 -27 160 -26 110
-84 194 -181 266 -56 41 -80 51 -173 74 -60 14 -121 26 -135 26 -22 0 -102
-15 -182 -35 -38 -9 -158 -35 -180 -39 -14 -3 -40 -9 -57 -15 -18 -5 -33 -8
-33 -6 0 2 -18 -2 -40 -10 -22 -8 -40 -12 -40 -10 0 2 -15 -1 -32 -7 -59 -20
-149 -92 -199 -158 -42 -57 -53 -81 -72 -167 -6 -27 -17 -23 -41 16 -14 22
-38 48 -53 58 -16 10 -44 30 -63 45 -24 18 -68 35 -141 52 -59 15 -114 26
-123 26 -9 0 -16 3 -16 6 0 3 46 51 103 107 130 131 294 307 385 415 24 28 54
64 67 79 32 38 84 101 120 147 17 22 35 44 40 50 6 6 30 38 55 71 25 33 49 64
53 70 56 71 169 231 284 405 79 118 146 220 151 225 4 6 16 26 26 45 11 19 34
58 52 85 18 28 38 62 45 78 7 15 16 27 21 27 4 0 8 5 8 11 0 6 22 48 50 95 27
47 50 87 50 90 0 3 15 29 34 58 34 54 224 426 308 602 25 54 72 162 103 239
31 76 60 144 65 150 4 5 36 89 69 185 34 96 68 189 75 205 8 17 19 46 24 65 6
19 24 82 41 140 17 58 38 132 47 165 9 33 25 84 35 113 11 30 31 102 45 160
14 59 28 116 30 127 7 29 51 263 58 305 5 36 12 89 21 175 36 322 36 697 0
990 -12 91 -24 172 -31 210 -3 11 -11 52 -19 90 -31 151 -48 216 -105 385
-166 501 -466 959 -831 1270 -35 30 -66 57 -69 60 -13 14 -110 80 -150 102
-111 60 -239 67 -370 20 -58 -21 -164 -84 -215 -128 -35 -30 -41 -32 -47 -17
-3 10 -13 39 -22 64 -33 93 -124 221 -220 308 -22 20 -47 43 -56 51 -8 9 -34
29 -55 45 -22 17 -42 32 -45 35 -5 5 -154 103 -202 133 -69 43 -258 140 -401
207 -124 57 -529 218 -592 234 -5 2 -18 6 -27 10 -9 4 -22 9 -30 10 -7 1 -35
10 -63 20 -51 19 -71 25 -80 26 -3 0 -29 9 -57 19 -65 23 -157 52 -181 56 -9
2 -21 6 -26 9 -5 3 -33 12 -62 20 -30 8 -85 24 -124 36 -38 11 -122 34 -185
51 -63 17 -155 42 -205 55 -49 14 -98 27 -108 29 -10 2 -28 7 -40 10 -12 3
-38 10 -57 15 -190 51 -276 63 -440 64 -176 1 -231 -6 -375 -45 -84 -24 -87
-25 -197 -77 -82 -39 -86 -40 -82 -19 13 61 19 142 18 237 -1 173 -46 290
-150 394 -33 34 -67 66 -75 71 -116 83 -299 141 -511 161 -59 6 -267 12 -271
8z"/>
</g>
</svg>
