<?xml version="1.0" standalone="no"?>
<!DOCTYPE svg PUBLIC "-//W3C//DTD SVG 20010904//EN"
 "http://www.w3.org/TR/2001/REC-SVG-20010904/DTD/svg10.dtd">
<svg version="1.0" xmlns="http://www.w3.org/2000/svg"
 width="1500.000000pt" height="1500.000000pt" viewBox="0 0 1500.000000 1500.000000"
 preserveAspectRatio="xMidYMid meet">
<metadata>
Created by potrace 1.11, written by Peter Selinger 2001-2013
</metadata>
<g transform="translate(0.000000,1500.000000) scale(0.100000,-0.100000)"
fill="#000000" stroke="none">
<path d="M6410 14078 c-746 -185 -1578 -531 -2228 -929 -157 -96 -461 -297
-482 -319 -3 -3 -59 -45 -125 -95 -66 -49 -145 -110 -175 -135 -30 -25 -63
-52 -73 -60 -11 -8 -24 -19 -31 -25 -6 -5 -29 -25 -51 -44 -185 -157 -437
-406 -625 -617 -199 -222 -417 -520 -607 -829 -95 -154 -253 -460 -318 -616
-15 -35 -33 -77 -40 -94 -8 -16 -28 -68 -45 -115 -18 -47 -43 -113 -56 -147
-13 -34 -24 -65 -24 -70 0 -4 -16 -57 -36 -118 -29 -89 -67 -228 -90 -325 -40
-173 -91 -450 -99 -540 -3 -32 -10 -91 -20 -165 -26 -199 -26 -919 0 -1050 2
-11 7 -47 10 -80 12 -114 22 -190 30 -215 2 -8 6 -34 9 -58 3 -24 17 -103 31
-175 110 -548 321 -1101 605 -1587 45 -77 180 -291 190 -300 3 -3 20 -27 39
-55 360 -524 904 -1053 1487 -1443 395 -263 945 -544 1259 -641 205 -63 253
-117 356 -408 106 -297 161 -383 284 -444 112 -55 229 -40 405 54 167 89 345
207 456 303 l61 53 38 -75 c52 -101 124 -173 222 -220 73 -35 85 -38 180 -40
109 -3 157 6 308 58 202 70 417 186 774 420 40 27 75 47 76 46 1 -2 8 -25 15
-53 56 -215 215 -338 430 -334 125 3 217 33 330 110 153 104 278 294 306 467
64 384 -208 649 -569 556 -61 -15 -196 -78 -249 -115 -14 -11 -28 -19 -31 -19
-2 0 -56 -30 -118 -67 -63 -36 -144 -83 -181 -104 -37 -21 -84 -49 -105 -61
-21 -12 -94 -52 -163 -90 -69 -38 -132 -73 -140 -78 -8 -6 -24 -14 -35 -19
-11 -5 -99 -47 -195 -94 -168 -81 -340 -152 -399 -163 -36 -7 -52 17 -76 111
-18 72 -20 90 -29 207 -3 37 -12 82 -19 100 -32 76 -141 153 -201 142 -72 -13
-222 -130 -425 -332 -91 -90 -190 -183 -220 -206 -64 -48 -164 -110 -203 -125
-30 -11 -31 -9 -69 119 -72 245 -125 365 -206 465 -98 120 -198 177 -485 275
-112 38 -233 82 -269 98 -35 16 -93 42 -129 58 -115 50 -363 182 -521 277 -55
33 -263 170 -269 177 -3 3 -35 27 -71 52 -311 220 -706 597 -1001 956 -260
317 -536 775 -697 1157 -148 351 -264 750 -316 1085 -3 19 -7 46 -10 60 -4 25
-10 64 -20 155 -4 28 -8 61 -10 75 -27 179 -27 756 -1 985 2 11 6 49 10 85 4
36 11 88 17 115 5 28 11 66 14 85 19 140 82 410 144 615 193 642 512 1248 954
1817 46 59 97 123 113 141 16 18 56 64 89 102 158 185 428 454 605 605 36 30
72 61 80 69 8 8 71 59 140 113 69 55 133 106 143 114 9 8 41 31 70 51 28 20
70 49 92 65 664 469 1410 814 2262 1047 124 34 166 55 194 98 27 41 24 70 -14
108 -52 52 -153 68 -257 43z m2355 -10742 c109 -72 73 -270 -61 -339 -157 -80
-290 64 -210 227 27 54 95 117 141 129 35 10 103 1 130 -17z"/>
<path d="M8665 13203 c-140 -14 -241 -50 -296 -106 -17 -18 -45 -61 -62 -97
-29 -62 -31 -71 -31 -190 -1 -140 4 -180 40 -329 38 -155 178 -562 243 -706 9
-20 111 -272 178 -440 19 -49 42 -105 50 -122 61 -141 186 -513 258 -770 8
-29 22 -77 30 -105 52 -182 155 -540 174 -613 5 -16 23 -79 41 -140 34 -119
58 -203 70 -250 17 -66 567 -1977 675 -2345 59 -203 61 -205 97 -121 47 108
167 617 234 991 3 14 16 84 29 155 14 72 30 157 36 190 6 33 15 80 19 105 5
25 21 110 34 190 14 80 28 159 31 175 3 17 7 44 10 60 3 17 10 53 15 80 5 28
12 66 14 85 3 19 21 130 41 245 20 116 38 221 40 235 2 14 9 52 14 85 25 145
44 262 47 290 2 17 10 66 18 110 8 44 17 98 21 120 3 22 10 65 15 95 14 80 19
110 25 155 3 22 10 65 15 95 5 30 12 73 15 95 4 22 8 51 11 65 2 14 7 41 10
60 2 19 7 46 9 60 3 14 7 43 11 65 3 22 12 76 19 120 8 44 17 97 21 119 3 21
8 48 10 60 4 23 20 111 29 166 4 19 8 46 10 60 1 14 6 45 9 70 24 161 31 268
29 440 -1 145 -8 203 -48 372 -10 45 -67 164 -108 226 -134 201 -387 371 -789
532 -236 93 -780 273 -928 306 -19 4 -39 9 -45 10 -61 15 -176 33 -240 39
-112 10 -116 11 -150 8z"/>
<path d="M6958 12985 c-2 -2 -34 -5 -73 -9 -88 -8 -106 -10 -270 -36 -261 -42
-750 -183 -971 -281 -22 -10 -63 -27 -90 -37 -223 -89 -534 -269 -708 -411
-179 -145 -466 -476 -561 -645 -106 -191 -117 -385 -41 -761 7 -35 9 -48 41
-220 13 -71 26 -143 29 -160 7 -33 31 -192 41 -265 3 -25 8 -52 10 -60 2 -8 7
-42 10 -75 3 -33 8 -67 10 -75 2 -8 7 -36 10 -62 5 -51 13 -106 20 -153 3 -16
7 -46 10 -65 9 -70 36 -256 41 -295 3 -22 8 -53 10 -68 8 -68 15 -114 19 -137
3 -14 7 -43 10 -65 3 -22 7 -56 10 -75 3 -19 8 -55 10 -80 3 -25 8 -52 10 -60
3 -8 7 -40 10 -70 3 -30 7 -66 10 -80 3 -14 7 -38 9 -55 9 -63 37 -265 40
-282 2 -10 7 -40 10 -68 4 -27 9 -61 11 -75 40 -269 56 -373 60 -410 3 -25 7
-52 10 -60 2 -8 7 -35 10 -60 3 -25 8 -56 10 -70 14 -88 25 -160 30 -195 3
-22 8 -56 11 -75 4 -19 8 -44 9 -55 4 -28 25 -155 30 -185 3 -14 8 -45 11 -70
3 -25 8 -54 10 -65 3 -11 7 -36 10 -55 8 -53 13 -82 18 -110 3 -14 8 -41 10
-60 3 -19 8 -48 11 -65 11 -65 17 -101 21 -120 2 -11 10 -58 18 -105 22 -122
24 -134 46 -245 11 -55 23 -118 26 -140 3 -22 8 -43 10 -46 2 -3 6 -21 9 -40
3 -19 12 -61 21 -94 8 -33 16 -71 19 -84 9 -50 57 -205 73 -239 9 -20 22 -37
28 -39 9 -3 65 196 113 407 5 19 54 215 110 435 56 220 104 407 106 415 5 24
21 85 65 260 23 91 43 172 45 180 2 8 44 175 94 370 176 697 403 1595 406
1610 2 8 42 168 90 355 48 187 88 347 90 355 2 8 8 33 13 55 18 72 343 1358
368 1455 14 52 26 102 28 110 2 8 23 89 46 180 42 168 47 187 54 218 2 9 43
170 91 357 47 187 88 347 90 355 2 8 18 71 35 140 41 162 40 155 8 156 -15 1
-29 0 -30 -1z"/>
<path d="M11999 11956 c-113 -40 -170 -115 -194 -256 -3 -19 -15 -80 -25 -135
-11 -55 -21 -111 -24 -125 -2 -14 -15 -83 -29 -155 -14 -71 -28 -143 -31 -160
-3 -16 -17 -86 -31 -155 -14 -69 -28 -137 -30 -153 -3 -15 -12 -59 -20 -97 -8
-38 -17 -82 -20 -97 -3 -16 -7 -39 -10 -53 -7 -29 -13 -61 -19 -92 -2 -13 -18
-88 -34 -168 -17 -80 -33 -158 -36 -174 -5 -26 -18 -92 -31 -151 -8 -41 -144
-721 -149 -750 -16 -85 -27 -143 -31 -165 -7 -34 -36 -190 -41 -215 -2 -11
-13 -72 -24 -135 -22 -120 -40 -221 -45 -255 -2 -18 -18 -109 -29 -175 -3 -14
-7 -41 -10 -60 -3 -19 -12 -78 -20 -130 -8 -52 -18 -115 -21 -140 -3 -25 -12
-88 -20 -140 -7 -52 -17 -119 -20 -149 -4 -30 -8 -61 -10 -70 -1 -9 -6 -45
-10 -81 -3 -36 -8 -76 -10 -90 -5 -31 -23 -197 -30 -270 -3 -30 -8 -75 -10
-100 -5 -44 -7 -70 -20 -255 -4 -49 -8 -110 -10 -135 -2 -25 -6 -121 -10 -215
-4 -93 -8 -191 -10 -217 -2 -27 0 -48 4 -48 13 0 200 190 290 295 237 275 530
716 716 1077 176 341 294 603 398 878 73 196 91 245 93 255 1 6 15 51 32 100
104 309 209 760 246 1055 26 211 30 269 30 525 1 297 -8 413 -50 625 -63 319
-196 617 -376 844 -44 56 -98 98 -147 115 -44 15 -127 13 -172 -3z"/>
<path d="M7778 11879 c-10 -5 -33 -38 -52 -72 -140 -250 -381 -1009 -771
-2427 -94 -341 -96 -351 -100 -369 -2 -10 -13 -51 -25 -91 -12 -40 -23 -80
-25 -89 -2 -9 -40 -153 -85 -321 -114 -428 -151 -572 -156 -594 -2 -10 -8 -33
-13 -50 -10 -29 -97 -358 -106 -400 -18 -78 -130 -476 -209 -736 -90 -299
-219 -746 -230 -800 -3 -14 -17 -72 -31 -130 -34 -139 -73 -344 -82 -433 -15
-138 -9 -375 12 -457 38 -154 103 -257 217 -343 65 -49 224 -119 307 -133 7
-1 34 -7 60 -13 171 -38 619 -47 866 -17 17 2 64 7 105 10 41 4 86 9 100 11
14 3 50 7 80 10 30 3 66 7 80 10 14 2 45 7 70 10 25 4 56 8 70 10 14 2 43 6
65 10 23 3 50 7 60 9 11 2 45 7 75 11 30 4 64 9 75 11 22 5 45 8 120 20 28 4
52 8 55 9 3 1 30 5 60 9 30 5 64 10 75 12 22 4 235 43 275 51 52 9 327 73 380
89 30 8 69 19 85 24 153 41 332 131 418 211 107 98 148 193 150 352 1 51 -2
118 -6 149 -17 123 -86 376 -190 688 -28 85 -52 157 -52 160 -1 3 -4 12 -8 20
-25 62 -221 689 -307 980 -15 52 -50 169 -78 260 -27 91 -55 181 -60 200 -6
19 -47 157 -92 305 -45 149 -86 286 -92 305 -5 19 -33 109 -60 200 -28 91 -56
185 -63 210 -7 25 -70 234 -140 465 -69 231 -189 627 -265 880 -141 470 -244
810 -307 1015 -71 235 -135 446 -148 490 -34 117 -78 256 -84 267 -4 8 -11 9
-23 2z"/>
<path d="M3230 10561 c-30 -14 -45 -36 -111 -166 -42 -82 -101 -215 -133 -295
-32 -80 -62 -156 -68 -170 -33 -82 -124 -387 -143 -480 -2 -8 -8 -33 -14 -56
-29 -109 -73 -377 -96 -584 -25 -237 -26 -739 0 -915 2 -16 7 -57 10 -90 3
-33 7 -69 9 -80 2 -11 7 -42 10 -70 12 -87 22 -147 47 -270 52 -254 147 -568
248 -820 52 -129 198 -434 266 -552 127 -223 338 -524 494 -703 161 -185 325
-348 358 -356 40 -10 95 4 122 31 22 22 26 34 26 88 0 55 -12 164 -20 177 -2
3 -6 28 -9 55 -4 28 -22 145 -41 260 -19 116 -37 228 -40 250 -4 22 -8 51 -10
65 -2 14 -9 57 -15 95 -14 93 -16 104 -35 215 -19 113 -22 131 -30 190 -3 25
-24 151 -45 280 -21 129 -40 251 -43 270 -11 78 -48 306 -52 320 -2 8 -7 35
-10 60 -9 65 -11 79 -39 250 -14 85 -28 173 -31 195 -3 22 -10 63 -15 90 -5
28 -11 71 -15 96 -3 25 -8 57 -10 70 -19 115 -25 149 -30 183 -3 21 -8 48 -11
60 -2 12 -6 37 -9 56 -3 33 -11 86 -21 140 -5 27 -24 152 -29 187 -2 12 -6 34
-9 50 -7 35 -14 79 -20 124 -3 19 -7 48 -10 64 -3 17 -17 104 -31 195 -14 91
-28 172 -30 180 -2 8 -6 35 -9 60 -4 25 -8 59 -11 75 -19 114 -27 168 -49 305
-14 85 -28 173 -31 195 -3 23 -8 52 -10 65 -4 21 -16 95 -41 245 -2 17 -6 41
-9 55 -2 14 -7 43 -10 65 -25 180 -34 207 -75 236 -36 25 -80 29 -120 10z"/>
<path d="M11930 5020 c-47 -11 -101 -21 -120 -25 -20 -3 -47 -7 -60 -10 -14
-3 -38 -7 -55 -11 l-30 -5 -1 -202 c-1 -111 -5 -506 -9 -878 l-7 -676 179 35
c98 19 180 37 183 39 2 2 5 95 6 206 1 111 5 505 9 875 4 369 3 672 -2 671 -4
0 -46 -9 -93 -19z"/>
<path d="M10828 4805 c-2 -3 -74 -18 -159 -35 -85 -16 -163 -32 -174 -34 -19
-5 -20 -14 -21 -288 -1 -156 -4 -550 -7 -876 l-7 -593 38 7 c48 9 47 8 177 34
137 26 157 34 148 56 -5 14 -2 16 18 10 95 -29 151 -29 238 1 276 93 474 368
475 658 1 142 -37 246 -121 336 -90 96 -193 135 -338 126 -101 -6 -145 -20
-214 -71 l-46 -34 3 354 c2 195 2 354 -1 354 -2 0 -6 -2 -9 -5z m286 -991 c73
-35 100 -151 56 -237 -44 -86 -107 -132 -185 -136 -98 -5 -161 67 -151 172 7
69 25 107 77 158 59 57 137 74 203 43z"/>
<path d="M12728 4524 c-2 -1 -25 -5 -51 -8 -239 -32 -458 -253 -521 -527 -18
-77 -17 -229 1 -294 36 -123 118 -225 218 -271 225 -103 496 3 699 273 l46 62
-142 46 -143 47 -47 -46 c-60 -58 -101 -78 -156 -80 -38 -1 -48 4 -73 32 -17
19 -29 44 -29 60 l0 27 298 59 c163 33 302 61 308 63 16 6 18 168 3 229 -32
133 -138 260 -250 299 -39 14 -155 35 -161 29z m0 -346 c14 -12 35 -58 29 -64
-1 -2 -36 -10 -77 -18 -156 -32 -154 -32 -125 24 23 45 80 79 123 74 20 -3 42
-10 50 -16z"/>
<path d="M9795 3960 c-287 -58 -527 -346 -542 -650 -15 -286 159 -489 422
-494 269 -6 530 197 632 490 23 68 27 95 27 199 1 133 -16 196 -74 279 -65 92
-110 127 -208 162 -70 25 -174 30 -257 14z m114 -398 c69 -51 86 -130 46 -218
-88 -198 -343 -187 -339 16 2 89 53 167 137 205 56 26 118 25 156 -3z"/>
<path d="M12798 2631 c-126 -32 -213 -106 -248 -209 -36 -109 -8 -197 76 -240
30 -16 69 -21 191 -27 116 -6 148 -18 159 -60 9 -36 -2 -68 -33 -99 -42 -42
-81 -59 -153 -64 -57 -4 -74 -1 -122 22 -30 14 -57 26 -60 26 -3 0 -26 -27
-52 -60 l-47 -61 68 -32 c63 -30 76 -32 173 -32 98 0 110 2 170 32 111 55 181
143 195 244 8 60 -10 126 -42 161 -24 25 -98 56 -133 56 -8 0 -58 3 -110 7
-95 7 -143 22 -153 49 -19 49 39 128 108 148 54 15 128 12 166 -7 16 -9 34
-15 39 -13 5 2 27 27 49 57 46 62 44 68 -39 95 -67 22 -132 24 -202 7z"/>
<path d="M12390 2536 c-3 -2 -23 -7 -45 -10 -76 -12 -70 10 -72 -266 -1 -285
-8 -319 -74 -393 -111 -127 -295 -121 -345 10 -13 32 -17 73 -16 146 0 56 1
166 2 244 1 79 -1 147 -5 152 -3 6 -15 7 -28 2 -12 -5 -44 -11 -70 -15 l-48
-7 3 -292 c3 -276 4 -294 24 -332 82 -151 256 -198 434 -117 101 46 200 154
242 265 25 66 30 122 32 388 1 195 -1 224 -14 227 -9 1 -18 1 -20 -2z"/>
<path d="M9510 2468 c-11 -4 -31 -9 -45 -11 -13 -1 -27 -6 -30 -9 -4 -3 -9
-219 -11 -479 -3 -261 -6 -554 -8 -652 -1 -98 1 -180 5 -183 7 -4 39 2 124 21
19 4 20 14 23 372 2 202 5 500 7 660 l2 293 -23 -2 c-13 -1 -32 -6 -44 -10z"/>
<path d="M10175 2431 c-113 -33 -120 -201 -9 -201 43 0 90 41 106 92 10 34 9
44 -7 74 -10 19 -23 34 -29 35 -6 0 -18 2 -26 3 -8 2 -24 0 -35 -3z"/>
<path d="M9163 2396 c-28 -6 -54 -14 -58 -18 -10 -9 -23 -1303 -13 -1313 5 -5
36 0 123 20 19 4 20 13 22 222 1 120 4 417 6 661 5 409 4 442 -11 441 -9 -1
-40 -7 -69 -13z"/>
<path d="M10823 2240 c-47 -11 -112 -47 -165 -91 l-48 -40 0 37 c0 36 -1 36
-32 30 -18 -4 -52 -9 -75 -13 -42 -6 -43 -6 -44 -47 -10 -591 -9 -786 3 -786
7 0 39 6 70 14 32 7 60 11 63 8 3 -3 5 66 6 154 2 374 7 407 85 493 102 114
255 129 337 32 43 -52 48 -92 45 -347 l-3 -236 30 7 c17 3 39 8 50 10 11 3 32
7 46 10 l25 6 0 272 -1 272 -28 57 c-32 65 -90 121 -154 149 -47 20 -147 24
-210 9z"/>
<path d="M10165 2097 c-27 -6 -52 -12 -55 -14 -11 -10 -15 -816 -4 -820 5 -2
39 3 74 10 l65 13 2 184 c9 670 10 640 -12 639 -11 -1 -42 -6 -70 -12z"/>
<path d="M8887 1843 c-2 -1 -18 -5 -37 -8 -63 -10 -67 -13 -65 -48 3 -55 -2
-58 -58 -30 -166 84 -392 3 -527 -189 -28 -40 -53 -84 -57 -98 -3 -14 -9 -29
-13 -35 -18 -23 -32 -134 -26 -201 10 -119 66 -220 150 -269 42 -24 144 -52
181 -49 114 9 205 48 288 124 54 49 54 49 55 22 0 -76 -7 -71 75 -52 l72 17 1
54 c2 76 6 741 5 756 -1 10 -36 15 -44 6z m-251 -218 c95 -28 151 -122 142
-238 -13 -156 -148 -299 -297 -314 -64 -6 -146 29 -184 78 -98 130 -33 350
131 446 74 44 130 51 208 28z"/>
</g>
</svg>
